<?xml version="1.0" standalone="no"?>
<!DOCTYPE svg PUBLIC "-//W3C//DTD SVG 20010904//EN"
 "http://www.w3.org/TR/2001/REC-SVG-20010904/DTD/svg10.dtd">
<svg version="1.0" xmlns="http://www.w3.org/2000/svg"
 width="512.000000pt" height="512.000000pt" viewBox="0 0 512.000000 512.000000"
 preserveAspectRatio="xMidYMid meet">

<g transform="translate(0.000000,512.000000) scale(0.100000,-0.100000)"
fill="#a2d2ff" stroke="none">
<path d="M4195 5110 c-198 -30 -374 -119 -518 -262 -131 -129 -189 -236 -247
-447 -55 -204 -131 -375 -235 -530 l-45 -68 -68 14 c-112 24 -446 28 -582 9
-206 -30 -413 -91 -614 -181 -113 -51 -143 -79 -131 -127 5 -20 -5 -29 -76
-70 -45 -27 -85 -48 -89 -48 -4 0 -13 7 -20 15 -28 34 -74 18 -189 -64 -598
-429 -946 -985 -979 -1566 -4 -66 -5 -163 -2 -215 l5 -95 -49 -60 c-27 -33
-109 -120 -182 -192 -73 -73 -141 -147 -151 -165 -11 -22 -17 -55 -17 -98 0
-178 137 -254 460 -254 l152 0 -18 -46 c-34 -85 -99 -229 -136 -299 -22 -42
-39 -90 -42 -119 -9 -99 66 -205 164 -232 37 -11 65 -11 143 -1 237 31 430
129 591 297 125 131 199 262 244 431 l23 87 109 18 c132 22 294 66 429 117
119 45 112 50 114 -100 1 -83 5 -102 29 -150 36 -72 99 -112 186 -117 55 -4
68 0 133 35 98 52 239 152 323 230 l70 65 0 -32 c0 -69 22 -123 70 -171 50
-50 95 -69 167 -69 138 0 507 294 665 531 142 212 239 493 255 740 6 84 5 86
-22 107 -36 28 -70 28 -99 -1 -18 -18 -24 -38 -29 -100 -29 -336 -185 -662
-424 -887 -85 -79 -239 -190 -314 -226 -87 -40 -121 9 -117 168 l3 101 60 13
c116 23 223 83 315 175 78 78 95 117 95 224 0 109 -18 149 -96 219 -80 72
-130 83 -296 65 -73 -8 -133 -15 -133 -14 -2 1 -29 183 -30 197 0 12 13 18 53
23 136 17 260 74 360 165 113 104 150 214 112 335 -20 64 -82 140 -139 170
-20 11 -36 22 -36 26 0 3 22 35 48 70 64 84 117 165 181 272 29 48 55 87 57
87 8 0 115 -223 154 -320 50 -125 102 -298 125 -410 11 -54 25 -93 38 -107 28
-31 71 -30 104 3 30 30 28 53 -17 234 -61 242 -159 482 -297 723 -38 68 -28
91 62 139 106 57 333 151 496 206 80 28 172 63 205 80 317 161 565 519 564
814 -1 308 -260 569 -627 633 -90 16 -214 18 -298 5z m340 -170 c98 -25 188
-69 261 -128 75 -62 83 -75 64 -109 -25 -44 -74 -67 -142 -65 -51 2 -63 -2
-84 -23 -30 -30 -31 -66 -1 -100 46 -53 185 -43 277 21 l48 33 7 -57 c18 -162
-79 -378 -244 -543 -131 -130 -208 -175 -443 -255 -168 -58 -326 -122 -440
-180 l-67 -34 -43 43 c-50 49 -194 130 -322 182 -50 19 -92 37 -93 39 -2 2 16
35 40 72 94 146 171 328 227 535 47 177 86 247 199 359 55 54 124 111 161 132
74 43 189 84 275 98 83 12 228 4 320 -20z m-1835 -1256 c0 -3 -11 -20 -25 -38
-56 -74 -68 -172 -29 -248 25 -50 283 -307 329 -329 54 -25 144 -25 194 0 20
11 53 37 72 58 45 49 140 204 190 307 21 43 41 81 43 84 3 2 37 -14 76 -37 90
-54 99 -74 69 -149 -30 -73 -147 -276 -230 -397 -203 -298 -526 -633 -836
-867 -96 -72 -117 -104 -101 -147 4 -13 7 -25 6 -26 -2 -1 -37 -25 -78 -52
-76 -51 -76 -51 -99 -32 -13 11 -32 19 -44 19 -11 0 -79 -33 -151 -74 -202
-115 -220 -122 -251 -106 -55 29 -190 147 -251 219 -113 131 -185 253 -249
421 -41 105 -90 300 -79 309 5 4 32 13 59 19 28 7 82 28 120 47 72 36 534 354
617 425 81 69 137 161 224 364 l81 190 64 14 c122 24 279 39 279 26z m679
-1174 c16 -11 37 -41 47 -65 23 -62 9 -108 -54 -170 -82 -81 -188 -130 -298
-137 l-59 -3 -10 50 -11 50 145 153 c139 145 148 152 179 148 18 -3 45 -14 61
-26z m28 -906 c39 -29 59 -86 49 -139 -14 -70 -124 -165 -241 -205 -97 -33
-90 -44 -104 161 -7 99 -10 183 -7 187 11 10 189 30 231 26 21 -3 54 -16 72
-30z m-438 -384 l1 -75 -48 -55 c-101 -119 -271 -257 -397 -324 -62 -32 -79
-33 -110 -1 -24 23 -25 29 -25 164 l0 139 98 53 c127 68 244 141 367 228 l100
71 6 -63 c4 -34 7 -96 8 -137z m-1504 19 c12 -88 -10 -309 -46 -454 -81 -326
-345 -566 -683 -620 -108 -17 -139 -10 -155 35 -7 23 -4 40 21 94 l31 66 52 0
c129 0 305 71 397 160 72 71 96 139 78 225 -24 114 -114 186 -249 199 -40 4
-71 12 -71 18 0 6 5 50 12 98 l11 87 156 31 c86 17 215 49 286 71 72 22 135
40 142 40 6 1 14 -21 18 -50z m-980 -37 c39 -46 97 -72 163 -72 50 0 52 -1 51
-27 0 -16 -8 -71 -17 -123 l-17 -95 -45 -12 c-66 -17 -256 -16 -342 2 -95 20
-118 36 -118 79 0 30 15 49 138 173 108 109 139 135 147 124 6 -8 23 -30 40
-49z m452 -418 c40 -6 73 -46 73 -88 0 -43 -56 -96 -143 -136 -61 -28 -157
-51 -157 -37 0 3 15 45 34 94 19 49 40 110 47 136 l11 47 52 -5 c28 -3 65 -8
83 -11z"/>
<path d="M4152 4700 c-45 -19 -91 -62 -113 -107 -58 -120 10 -280 104 -244 34
13 50 46 43 85 -4 17 -9 43 -12 58 -4 18 0 32 15 47 29 29 51 26 96 -9 46 -36
78 -38 110 -5 71 70 -33 186 -166 184 -30 0 -64 -4 -77 -9z"/>
<path d="M2100 2896 c-43 -11 -120 -60 -120 -75 0 -17 -136 -116 -217 -158
-48 -25 -101 -57 -117 -71 -40 -38 -66 -98 -66 -157 0 -72 84 -389 115 -437
60 -90 174 -122 285 -78 198 78 568 348 634 464 51 87 39 199 -27 267 -57 58
-330 237 -378 248 -53 13 -53 13 -109 -3z"/>
</g>
</svg>
